{"title":"Tool - Opiate - Custom Remaster by MC Lurken 16-bit 44.1kHz flac","uid":8010230,"size":210288883,"categoryP":"audio","categoryS":"flac","magnet":"?xt=urn:btih:1476d7f47ae85c3955675a2a6dc6c5e1eb666601&amp;dn=Tool+-+Opiate+-+Custom+Remaster+by+MC+Lurken+16-bit+44.1kHz+flac&amp;tr=udp%3A%2F%2Ftracker.openbittorrent.com%3A80&amp;tr=udp%3A%2F%2Fopen.demonii.com%3A1337&amp;tr=udp%3A%2F%2Ftracker.coppersurfer.tk%3A6969&amp;tr=udp%3A%2F%2Fexodus.desync.com%3A6969","seeders":0,"leechers":1,"uploader":"beavis39","files":-1,"time":1357980561,"description":"Tool - Opiate - Custom Remaster by MC Lurken (a.k.a. Beavis39)\n\n\n1 - Sweat\n2 - Hush\n3 - Part of Me\n4 - Cold and Ugly (live)\n5 - Jerk-Off (live)\n6.0 - Opiate\n6.1 - The Gaping Lotus Experience\n\n\nSetup:\n-HP G72-250US\n-Intel Core i3 M350 2.27GHz\n-8Gb PC3-10700 RAM\n-Win7 64-bit SP1\n-SB X-Fi Surround 5.1\n\n\nProcess:\n-Original 16-bit/44.1kHz files joined in Wavelab 6\n-Remove DC offset and save as 64-bit float/44.1kHz\n-Resample to 384kHz in Wavelab w/crystal resampler ultra(slow) relax background priority\n-Create new 64-bit/384kHz master recording in Wavelab\n\n\nAs reported in Wavelab:\n-Original 16-bit/44.1kHz: Apparent Bit Resolution = 16, Peak = -0.123db\n-With DC Offset Removed: Apparent Bit Resolution = 18, Peak = -0.117db\n-64-bit/384kHz Recording: Apparent Bit Resolution = 36, Peak = 0.701db\n\n\n-Resample new 64-bit/384kHz master recording to 64-bit/44.1kHz in Wavelab w/crystal resampler ultra(slow) relax background priority\n-Apply MBIT+ 16-bit Dither in Wavelab w/Izotope Ozone 5 VST Plugin\n-Flac encode level 0 with Trader's Little Helper\n-Tag and pic with xrecode II\n\n\nfoobar2000 1.1.14a / Dynamic Range Meter 1.1.1\nlog date: 2013-01-11 20:33:28\n\n--------------------------------------------------------------------------------\nAnalyzed: ? / ?\n--------------------------------------------------------------------------------\n\nDR         Peak         RMS     Duration Track\n--------------------------------------------------------------------------------\nDR10       0.00 dB   -11.90 dB      3:46 ?-01 - Sweat\nDR11       0.00 dB   -12.03 dB      2:48 ?-02 - Hush\nDR10       0.00 dB   -11.31 dB      3:17 ?-03 - Part of Me\nDR9       -0.60 dB   -11.38 dB      4:09 ?-04 - Cold and Ugly (live)\nDR10      -0.54 dB   -11.91 dB      4:25 ?-05 - Jerk-Off (live)\nDR11      -0.08 dB   -13.72 dB      8:29 ?-06 - Opiate\n--------------------------------------------------------------------------------\n\nNumber of tracks:  6\nOfficial DR value: DR10\n\nSamplerate:        44100 Hz\nChannels:          2\nBits per sample:   16\nBitrate:           1411 kbps\nCodec:             PCM\n\n\n\nenjoy :)","torrent":{"xt":"urn:btih:1476d7f47ae85c3955675a2a6dc6c5e1eb666601","amp;dn":"Tool+-+Opiate+-+Custom+Remaster+by+MC+Lurken+16-bit+44.1kHz+flac","amp;tr":["udp%3A%2F%2Ftracker.openbittorrent.com%3A80","udp%3A%2F%2Fopen.demonii.com%3A1337","udp%3A%2F%2Ftracker.coppersurfer.tk%3A6969","udp%3A%2F%2Fexodus.desync.com%3A6969"],"infoHash":"1476d7f47ae85c3955675a2a6dc6c5e1eb666601","infoHashBuffer":{"type":"Buffer","data":[20,118,215,244,122,232,92,57,85,103,90,42,109,198,197,225,235,102,102,1]},"announce":[],"urlList":[]}}